<svg width="16" height="16" viewBox="0 0 16 16" fill="none" xmlns="http://www.w3.org/2000/svg">
<path fill-rule="evenodd" clip-rule="evenodd" d="M15.7959 15.7981C15.5268 16.0673 15.0896 16.0673 14.8204 15.7981L8 8.97678L1.17747 15.7981C0.908271 16.0673 0.471095 16.0673 0.201898 15.7981C-0.0672993 15.5288 -0.0672993 15.0916 0.201898 14.8224L7.02443 8.00108L0.204051 1.17763C-0.0651457 0.908393 -0.0651457 0.471158 0.204051 0.201925C0.473249 -0.0673084 0.910425 -0.0673084 1.17962 0.201925L8 7.02538L14.8225 0.204079C15.0917 -0.0651545 15.5289 -0.0651545 15.7981 0.204079C16.0673 0.473312 16.0673 0.910547 15.7981 1.17978L8.97557 8.00108L15.7959 14.8245C16.0651 15.0938 16.0651 15.5288 15.7959 15.7981Z" fill="#212121"/>
</svg>
