<svg width="18" height="13" viewBox="0 0 18 13" fill="none" xmlns="http://www.w3.org/2000/svg">
<g opacity="0.87">
<path opacity="0.87" fill-rule="evenodd" clip-rule="evenodd" d="M1.33337 6.99939H16.6666C16.8507 6.99939 17 6.8501 17 6.66602C17 6.48206 16.8507 6.33276 16.6666 6.33276H1.33337C1.14929 6.33276 1 6.48206 1 6.66602C1 6.8501 1.14929 6.99939 1.33337 6.99939Z" fill="black" stroke="black"/>
<path opacity="0.87" fill-rule="evenodd" clip-rule="evenodd" d="M1.33316 6.99948C1.41849 6.99948 1.50381 6.96677 1.56912 6.90219L6.9025 1.56882C7.0325 1.43881 7.0325 1.22751 6.9025 1.0975C6.77249 0.967499 6.56107 0.967499 6.43106 1.0975L1.09781 6.43076C0.967804 6.56076 0.967804 6.77219 1.09781 6.90219C1.16251 6.96677 1.24783 6.99948 1.33316 6.99948Z" fill="black" stroke="black"/>
<path opacity="0.87" fill-rule="evenodd" clip-rule="evenodd" d="M6.66641 12.3329C6.75174 12.3329 6.83707 12.3001 6.9025 12.2354C7.0325 12.1054 7.0325 11.8941 6.9025 11.7641L1.56912 6.43076C1.43912 6.30075 1.22781 6.30075 1.09781 6.43076C0.967804 6.56076 0.967804 6.77219 1.09781 6.90219L6.43106 12.2354C6.49576 12.3001 6.58109 12.3329 6.66641 12.3329Z" fill="black" stroke="black"/>
</g>
</svg>
